<svg width="340" height="340" viewBox="0 0 340 340" fill="none" xmlns="http://www.w3.org/2000/svg">
<mask id="mask0_935_544" style="mask-type:luminance" maskUnits="userSpaceOnUse" x="71" y="50" width="200" height="124">
<path d="M270.474 50H71.5261V173.229H270.474V50Z" fill="white"/>
</mask>
<g mask="url(#mask0_935_544)">
<path d="M263.137 135.24C256.967 129.699 242.476 122.805 235.495 108.616C228.322 94.0508 231.649 80.7661 231.649 71.8518C231.649 59.8379 221.879 50.0916 209.83 50.0916C197.781 50.0916 188.011 59.8379 188.011 71.8518C188.011 79.3216 187.136 98.9515 184.676 109.146C183.928 112.236 182.825 113.891 181.996 115.052C178.815 119.514 169.738 124.661 160.66 118.435C158.09 116.744 155.83 113.745 154.727 110.06C152.394 102.234 155.001 79.541 154.007 69.7397C153.998 69.6575 153.989 69.5752 153.98 69.4929C153.816 67.966 153.561 66.6311 153.169 65.5248C150.453 56.5922 142.132 50.0916 132.289 50.0916C120.24 50.0916 110.47 59.8379 110.47 71.8518C110.47 78.2975 113.277 84.085 117.752 88.0714C123.922 93.612 138.413 100.506 145.395 114.696C152.558 129.26 149.231 142.545 149.231 151.459C149.231 163.473 159.002 173.22 171.05 173.22C180.182 173.22 188.011 167.615 191.256 159.661C196.442 147.848 188.002 127.112 195.339 111.651C196.779 108.616 198.383 107.08 200.005 105.608C203.386 102.563 214.041 99.1526 221.678 108.277C223.619 110.865 224.166 112.858 224.631 114.833C226.581 123.217 224.804 149.713 227.711 157.805C230.437 166.719 238.748 173.201 248.573 173.201C260.622 173.201 270.392 163.455 270.392 151.441C270.392 144.995 267.585 139.208 263.11 135.222L263.137 135.24Z" fill="black"/>
<path d="M93.5453 173.22C105.594 173.22 115.364 163.482 115.364 151.459C115.364 139.436 105.594 129.699 93.5453 129.699C81.4967 129.699 71.7266 139.436 71.7266 151.459C71.7266 163.482 81.4967 173.22 93.5453 173.22Z" fill="black"/>
</g>
<path fill-rule="evenodd" clip-rule="evenodd" d="M97.4545 217.021H87.4962C87.1482 217.021 86.8398 217.19 86.6487 217.452L86.6488 217.452L65.7743 241.244C65.3139 241.768 64.5096 241.768 64.043 241.25L42.9942 217.641C42.9744 217.619 42.9551 217.599 42.9362 217.581C42.7599 217.248 42.4105 217.021 42.0082 217.021H32.0499C31.4701 217.021 31 217.492 31 218.074V276.758C31 277.339 31.4701 277.811 32.0499 277.811H42.0082C42.588 277.811 43.0581 277.339 43.0581 276.758V235.975L57.4 252.183C57.4429 252.244 57.4921 252.3 57.5473 252.349L57.5719 252.38L62.7966 258.28L62.8273 258.311L64.0553 259.697C64.4912 260.085 65.1542 260.042 65.5349 259.611L86.4463 235.977V276.758C86.4463 277.339 86.9163 277.811 87.4962 277.811H97.4545C98.0343 277.811 98.5044 277.339 98.5044 276.758V218.074C98.5044 217.492 98.0343 217.021 97.4545 217.021Z" fill="black"/>
<path d="M132.487 228.119C118.808 228.119 107.72 239.242 107.72 252.965C107.72 266.687 118.808 277.811 132.487 277.811C146.166 277.811 157.254 266.687 157.254 252.965C157.254 239.242 146.166 228.119 132.487 228.119ZM132.487 266.441C125.07 266.441 119.053 260.405 119.053 252.965C119.053 245.525 125.07 239.489 132.487 239.489C139.903 239.489 145.92 245.525 145.92 252.965C145.92 260.405 139.903 266.441 132.487 266.441Z" fill="black"/>
<path d="M231.383 228.119C226.428 228.119 221.817 229.585 217.949 232.098V229.191C217.949 228.612 217.476 228.138 216.899 228.138H206.941C206.364 228.138 205.891 228.612 205.891 229.191V287.875C205.891 288.454 206.364 288.928 206.941 288.928H216.899C217.476 288.928 217.949 288.454 217.949 287.875V273.838C221.817 276.351 226.428 277.817 231.383 277.817C245.061 277.817 256.149 266.694 256.149 252.971C256.149 239.249 245.061 228.125 231.383 228.125V228.119ZM231.383 266.441C223.972 266.441 217.961 260.424 217.949 252.99V252.934C217.961 245.506 223.972 239.483 231.383 239.483C238.793 239.483 244.816 245.519 244.816 252.959C244.816 260.399 238.799 266.435 231.383 266.435V266.441Z" fill="black"/>
<path d="M195.349 228.131H188.848C176.489 228.131 166.475 238.183 166.475 250.575V270.746C166.475 270.746 166.475 270.777 166.475 270.789V276.757C166.475 277.336 166.948 277.811 167.525 277.811H177.483C178.06 277.811 178.533 277.336 178.533 276.757V249.682C178.533 243.153 183.807 237.857 190.321 237.857H195.724C196.289 237.857 196.682 237.401 196.682 236.902V229.462C196.682 228.723 196.086 228.125 195.349 228.125V228.131Z" fill="black"/>
<path d="M288.13 228.304C284.225 228.304 280.548 229.289 277.337 231.02V218.074C277.337 217.495 276.864 217.021 276.287 217.021H266.329C265.752 217.021 265.279 217.495 265.279 218.074V250.896C265.279 251.013 265.273 251.13 265.273 251.24V269.471H265.279V276.751C265.279 277.33 265.752 277.805 266.329 277.805H276.287C276.864 277.805 277.337 277.33 277.337 276.751V250.791C277.337 245.334 281.745 240.228 287.16 239.748C293.558 239.187 298.93 244.231 298.93 250.538V276.776C298.93 277.343 299.384 277.798 299.949 277.798H309.975C310.54 277.798 311 277.337 311 276.77V251.234C311 238.565 300.765 228.298 288.136 228.298L288.13 228.304Z" fill="black"/>
</svg>
